<svg clip-rule="evenodd" fill-rule="evenodd" stroke-linejoin="round" stroke-miterlimit="1.5" viewBox="0 0 2162 195" xmlns="http://www.w3.org/2000/svg" xmlns:xlink="http://www.w3.org/1999/xlink"><linearGradient id="a"><stop offset="0" stop-color="#fff" stop-opacity="0"/><stop offset="1" stop-color="#ccd5d9"/></linearGradient><linearGradient id="b" gradientUnits="userSpaceOnUse" x1="956.622" x2="2161.582" xlink:href="#a" y1="5.38908" y2="5.38908"/><linearGradient id="c" gradientUnits="userSpaceOnUse" x1="956.622" x2="2161.582" xlink:href="#a" y1="22.3298" y2="22.3298"/><linearGradient id="d" gradientUnits="userSpaceOnUse" x1="956.622" x2="2161.582" xlink:href="#a" y1="39.2706" y2="39.2706"/><linearGradient id="e" gradientUnits="userSpaceOnUse" x1="956.622" x2="2161.582" xlink:href="#a" y1="56.2113" y2="56.2113"/><linearGradient id="f" gradientUnits="userSpaceOnUse" x1="956.622" x2="2161.582" xlink:href="#a" y1="73.152" y2="73.152"/><linearGradient id="g" gradientUnits="userSpaceOnUse" x1="956.622" x2="2161.582" xlink:href="#a" y1="90.0928" y2="90.0928"/><linearGradient id="h" gradientUnits="userSpaceOnUse" x1="956.622" x2="2161.582" xlink:href="#a" y1="107.034" y2="107.034"/><linearGradient id="i" gradientUnits="userSpaceOnUse" x1="956.622" x2="2161.582" xlink:href="#a" y1="123.974" y2="123.974"/><linearGradient id="j" gradientUnits="userSpaceOnUse" x1="956.622" x2="2161.582" xlink:href="#a" y1="140.915" y2="140.915"/><linearGradient id="k" gradientUnits="userSpaceOnUse" x1="956.622" x2="2161.582" xlink:href="#a" y1="157.856" y2="157.856"/><linearGradient id="l" gradientUnits="userSpaceOnUse" x1="956.622" x2="2161.582" xlink:href="#a" y1="174.796" y2="174.796"/><linearGradient id="m" gradientUnits="userSpaceOnUse" x1="956.622" x2="2161.582" xlink:href="#a" y1="191.737" y2="191.737"/><path d="m-39.784-123.692h2281.25v394.251h-2281.25z" fill="#ebebeb" transform="matrix(.947728 0 0 .494609 37.7048 61.1791)"/><path d="m2161.58 5.389h-1204.96" fill="none" stroke="url(#b)" stroke-width="7.8" transform="matrix(1.7939 0 0 1 -1716.08 0)"/><path d="m2161.58 22.33h-1204.96" fill="none" stroke="url(#c)" stroke-width="7.8" transform="matrix(1.7939 0 0 1 -1716.08 0)"/><path d="m2161.58 39.271h-1204.96" fill="none" stroke="url(#d)" stroke-width="7.8" transform="matrix(1.7939 0 0 1 -1716.08 0)"/><path d="m2161.58 56.211h-1204.96" fill="none" stroke="url(#e)" stroke-width="7.8" transform="matrix(1.7939 0 0 1 -1716.08 0)"/><path d="m2161.58 73.152h-1204.96" fill="none" stroke="url(#f)" stroke-width="7.8" transform="matrix(1.7939 0 0 1 -1716.08 0)"/><path d="m2161.58 90.093h-1204.96" fill="none" stroke="url(#g)" stroke-width="7.8" transform="matrix(1.7939 0 0 1 -1716.08 0)"/><path d="m2161.58 107.034h-1204.96" fill="none" stroke="url(#h)" stroke-width="7.8" transform="matrix(1.7939 0 0 1 -1716.08 0)"/><path d="m2161.58 123.974h-1204.96" fill="none" stroke="url(#i)" stroke-width="7.8" transform="matrix(1.7939 0 0 1 -1716.08 0)"/><path d="m2161.58 140.915h-1204.96" fill="none" stroke="url(#j)" stroke-width="7.8" transform="matrix(1.7939 0 0 1 -1716.08 0)"/><path d="m2161.58 157.856h-1204.96" fill="none" stroke="url(#k)" stroke-width="7.8" transform="matrix(1.7939 0 0 1 -1716.08 0)"/><path d="m2161.58 174.796h-1204.96" fill="none" stroke="url(#l)" stroke-width="7.8" transform="matrix(1.7939 0 0 1 -1716.08 0)"/><path d="m2161.58 191.737h-1204.96" fill="none" stroke="url(#m)" stroke-width="7.8" transform="matrix(1.7939 0 0 1 -1716.08 0)"/><path d="m-.00011073-.00098515h334.16537193v194.43872546h-334.16537193z" fill="#ccd5d9" stroke-width="3.84403"/><path d="m178.894 718.381c-1.121-.782-2.528-1.846-3.571-2.857-1.496-1.357-2.719-3.012-3.574-4.836.665 1.908 1.729 3.752 3.299 5.251 1.213.991 2.513 1.794 3.846 2.442zm14.454-23.673c-1.173-1.78-3.423-2.83-5.584-3.516-6.418-2.53-15.566 2.295-16.922 10.614-.087.387-.231 1.274-.196 1.937.581-5.088 3.665-9.553 7.855-11.454 4.13-1.984 9.008-1.634 12.35.717.172.134.345.28.508.423-.584-.301-1.201-.556-1.838-.761-2.261-1.089-4.95-1.521-7.624-.947-5.262.824-10.033 5.616-10.857 11.593-.066.386-.111.78-.139 1.176-.158-.114-.255-.396-.255-.747-.088.408-.088.815-.069 1.228-.057 1.912.374 3.881 1.172 5.717-.309-.948-.503-1.906-.609-2.862.38 1.863 1.164 3.653 2.357 5.094.784.806 1.662 2.577 2.724 3.146 4.038 3.203 10.166 4.291 14.301 1.934.567-.152 1.131-.315 1.641-.611-.661.219-1.403.365-1.996.574l-.198.002c-.171.097-.256.143-.343.191-3.053.385-9.306 1.063-13.16-2.186-1.094-.785-1.941-1.818-2.735-2.877.406.277 1.059.652 1.453 1.067 1.942 1.939 4.609 3.692 7.205 3.902-1.197-.489-2.226-1.07-3.359-1.756-.586-.27-1.526-.426-1.951-.923-2.427-2.07-4.5-4.192-4.873-7.378-.057-.313.145-.56.044-.845.612 3.528 2.822 6.137 5.598 8.218.377.442.802.624 1.182.928.486.174.916.342 1.273.53 4.123 1.541 4.858-.15 8.555-.203-1.667.423-4.517 1.202-5.96 1.296 2.594.534 7.488-.786 9.724-2.45 2.779-1.896 2.221-1.982 3.657-4.407.125-.198.247-.65.35-1.197.872-1.679 1.372-3.585 1.372-5.608 0-3.881-1.822-7.332-4.653-9.559zm-20.337 12.165c-.244-1.574-.316-3.181.023-4.779-.032.315-.058.568-.043.689-.154 1.927-.006 3.501.171 4.524-.044-.137-.094-.277-.151-.434.068.303.149.605.242.898.154.721.296 1.008.255.742 1.233 3.23 3.833 5.723 6.717 6.9-2.818-.35-6.55-4.194-7.214-8.54zm8.216-13.874c-2.356.492-4.661 1.793-6.354 4.1 1.135-1.437 2.488-2.21 3.808-2.674-.119.087-.235.174-.35.264-1.03.611-1.997 1.345-2.863 2.264-.233.3-.34.664-.558.929l-.462.696c-.612.579-.978 1.272-1.376 2.006-1.729 3.814-1.521 8.562.852 12.554-4.29-5.939-2.598-14.426 2.479-18.184 2.112-1.666 4.56-2.48 6.964-2.613-.74.153-1.455.378-2.14.658zm7.792 23.5c-.399.071.218-.102 2.014-1.163.156-.09.325-.198.502-.314.7-.371 1.362-.812 1.975-1.312-1.769 1.711-3.941 2.798-4.491 2.789" fill="#fc7c00" fill-rule="nonzero" transform="matrix(3.84403 0 0 3.84403 -626.996 -2629.09)"/><path d="m208.699 707.04c0 3.956 2.537 4.9 6.473 4.9h6.588v5.891h-7.62c-7.787 0-12.244-2.73-12.244-13.034 0-8.917 1.458-13.605 11.587-13.605 8.039 0 9.991 3.284 9.991 10.397v5.503zm8.397-5.423c0-2.607.012-5.159-3.989-5.159-3.95 0-4.455 2.445-4.455 5.159z" fill="#231f20" fill-rule="nonzero" transform="matrix(3.84403 0 0 3.84403 -626.996 -2629.11)"/><path d="m272.874 691.192h-22.834v26.639h5.709v-20.931h4.026v.002c1.37 0 2.487 1.042 2.634 2.375v18.554h5.709v-20.931h3.996v.002c1.467 0 2.662 1.194 2.662 2.662v18.267h5.708v-19.029c0-4.2-3.406-7.61-7.61-7.61" fill="#231f20" fill-rule="nonzero" transform="matrix(3.84403 0 0 3.84403 -626.996 -2629.11)"/><path d="m235.581 696.902v-.002h10.656v-5.708h-11.649l-.004.014c-3.753.113-6.814 2.939-7.3 6.586h-.077v12.368h.077l-.077.061c0 4.119 3.283 7.472 7.377 7.597l.004.013h11.649v-5.71h-10.656c-1.47 0-2.664-1.195-2.664-2.664v-9.893c0-1.468 1.194-2.662 2.664-2.662" fill="#231f20" fill-rule="nonzero" transform="matrix(3.84403 0 0 3.84403 -626.996 -2629.11)"/><path d="m303.318 698.741c0-4.2-3.408-7.61-7.612-7.61h-11.416v5.708h10.656v.002c1.79 0 2.664 1.194 2.664 2.662 0 0 0 .403-.84 1.065-1.09.853-5.605 2.085-8.067 3.069v-.013c-3.84 1.285-5.603 3.682-5.603 7.44 0 4.881 2.15 6.767 6.375 6.767h13.843c-.123-2.866 0-19.09 0-19.09zm-5.708 13.461h-8.137c-.512 0-.81 0-.85-.364-.387-3.49 1.732-3.358 8.987-5.857z" fill="#231f20" fill-rule="nonzero" transform="matrix(3.84403 0 0 3.84403 -626.996 -2628.88)"/><g fill="#ccd5d9"><path d="m356.42988296 161.60901485h6.58866742v32.83186023h-6.58866742z" stroke-width="3.84403"/><path d="m259.662 674.495h2.105l3.255 6.387h.024v-6.387h1.64v8.541h-2.092l-3.268-6.387h-.024v6.387h-1.64z" fill-rule="nonzero" transform="matrix(3.84403 0 0 3.84403 -626.996 -2431.17)"/><path d="m270.503 675.841h-2.447v-1.346h6.607v1.346h-2.447v7.195h-1.713z" fill-rule="nonzero" transform="matrix(3.84403 0 0 3.84403 -626.996 -2431.17)"/><path d="m276.12 674.495h5.04v1.346h-3.328v2.105h3.047v1.345h-3.047v2.399h3.353v1.346h-5.065z" fill-rule="nonzero" transform="matrix(3.84403 0 0 3.84403 -626.996 -2431.17)"/><path d="m283.143 674.556h1.847c1.836 0 4.026-.061 4.026 2.312 0 1.004-.673 1.836-1.762 1.983v.024c.465.037.734.502.905.882l1.37 3.34h-1.908l-1.028-2.668c-.245-.636-.465-.88-1.187-.88h-.551v3.548h-1.712zm1.712 3.646h.564c.843 0 1.81-.122 1.81-1.187 0-1.028-.954-1.113-1.81-1.113h-.564z" fill-rule="nonzero" transform="matrix(3.84403 0 0 3.84403 -626.996 -2431.41)"/><path d="m291.047 674.495h2.105l3.254 6.387h.025v-6.387h1.639v8.541h-2.092l-3.267-6.387h-.024v6.387h-1.64z" fill-rule="nonzero" transform="matrix(3.84403 0 0 3.84403 -626.996 -2431.17)"/><path d="m302.781 674.495h1.933l3.353 8.541h-1.896l-.735-1.958h-3.462l-.747 1.958h-1.774zm.942 1.713h-.024l-1.237 3.524h2.497z" fill-rule="nonzero" transform="matrix(3.84403 0 0 3.84403 -626.996 -2431.17)"/><path d="m310.112 675.841h-2.447v-1.346h6.607v1.346h-2.446v7.195h-1.714z" fill-rule="nonzero" transform="matrix(3.84403 0 0 3.84403 -626.996 -2431.17)"/><path d="m586.11067546 161.60901485h6.58482339v32.83186023h-6.58482339z" stroke-width="3.84403"/><path d="m323.266 674.349c2.68 0 4.184 1.811 4.184 4.393s-1.48 4.441-4.184 4.441c-2.741 0-4.185-1.822-4.185-4.441s1.468-4.393 4.185-4.393zm0 7.489c1.75 0 2.398-1.554 2.398-3.096 0-1.505-.697-3.047-2.398-3.047s-2.399 1.542-2.399 3.047c0 1.542.649 3.096 2.399 3.096" fill-rule="nonzero" transform="matrix(3.84403 0 0 3.84403 -626.996 -2431.18)"/><path d="m329.298 674.495h2.104l3.256 6.387h.024v-6.387h1.639v8.541h-2.092l-3.267-6.387h-.024v6.387h-1.64z" fill-rule="nonzero" transform="matrix(3.84403 0 0 3.84403 -626.996 -2431.17)"/><path d="m341.032 674.495h1.933l3.353 8.541h-1.896l-.735-1.958h-3.462l-.747 1.958h-1.773zm.942 1.713h-.023l-1.237 3.524h2.496z" fill-rule="nonzero" transform="matrix(3.84403 0 0 3.84403 -626.996 -2431.17)"/><path d="m347.787 674.495h1.712v7.195h3.316v1.346h-5.028z" fill-rule="nonzero" transform="matrix(3.84403 0 0 3.84403 -626.996 -2431.17)"/></g></svg>